<svg width="24" height="24" viewBox="0 0 24 24" fill="none" xmlns="http://www.w3.org/2000/svg">
<g id="icon/24pt/close">
<path id="Union" fill-rule="evenodd" clip-rule="evenodd" d="M7.05028 15.5355C6.65975 15.926 6.65975 16.5592 7.05028 16.9497C7.4408 17.3402 8.07397 17.3402 8.46449 16.9497L12 13.4142L15.5356 16.9497C15.9261 17.3402 16.5592 17.3402 16.9498 16.9497C17.3403 16.5592 17.3403 15.926 16.9498 15.5355L13.4142 12L16.9498 8.46443C17.3403 8.07391 17.3403 7.44074 16.9498 7.05022C16.5592 6.65969 15.9261 6.65969 15.5356 7.05022L12 10.5858L8.46449 7.05022C8.07397 6.65969 7.4408 6.65969 7.05028 7.05022C6.65975 7.44074 6.65975 8.07391 7.05028 8.46443L10.5858 12L7.05028 15.5355Z" fill="black" fill-opacity="0.6"/>
</g>
</svg>
