<svg width="12" height="12" viewBox="0 0 12 12" fill="none" xmlns="http://www.w3.org/2000/svg">
<g id="icon/12pt/&#230;&#156;&#170;&#233;&#128;&#137;">
<circle id="Ellipse 13" cx="6" cy="6" r="5" fill="#999999"/>
<path id="Union" fill-rule="evenodd" clip-rule="evenodd" d="M7.76777 4.93923C7.96303 4.74397 7.96303 4.42738 7.76777 4.23212C7.5725 4.03686 7.25592 4.03686 7.06066 4.23212L6 5.29278L4.93934 4.23212C4.74408 4.03686 4.4275 4.03686 4.23223 4.23212C4.03697 4.42738 4.03697 4.74397 4.23223 4.93923L5.29289 5.99989L4.23223 7.06055C4.03697 7.25581 4.03697 7.57239 4.23223 7.76766C4.4275 7.96292 4.74408 7.96292 4.93934 7.76766L6 6.707L7.06066 7.76766C7.25592 7.96292 7.5725 7.96292 7.76777 7.76766C7.96303 7.57239 7.96303 7.25581 7.76777 7.06055L6.70711 5.99989L7.76777 4.93923Z" fill="white"/>
</g>
</svg>
