<svg width="24" height="24" viewBox="0 0 24 24" fill="none" xmlns="http://www.w3.org/2000/svg">
<g id="icon/24pt/link">
<path id="Union" fill-rule="evenodd" clip-rule="evenodd" d="M8 6L11 6V8H8C5.79086 8 4 9.79086 4 12C4 14.2091 5.79086 16 8 16H11V18H8C4.68629 18 2 15.3137 2 12C2 8.68629 4.68629 6 8 6ZM16 16H13V18H16C19.3137 18 22 15.3137 22 12C22 8.68629 19.3137 6 16 6H13V8H16C18.2091 8 20 9.79086 20 12C20 14.2091 18.2091 16 16 16ZM9 11C8.44772 11 8 11.4477 8 12C8 12.5523 8.44772 13 9 13H15C15.5523 13 16 12.5523 16 12C16 11.4477 15.5523 11 15 11H9Z" fill="white" fill-opacity="0.9"/>
</g>
</svg>
