<svg width="24" height="24" viewBox="0 0 24 24" fill="none" xmlns="http://www.w3.org/2000/svg">
<g id="icon/24pt/more">
<path id="Union" fill-rule="evenodd" clip-rule="evenodd" d="M3.00002 6C3.00002 5.44772 3.44773 5 4.00002 5H20C20.5523 5 21 5.44772 21 6C21 6.55228 20.5523 7 20 7H4.00002C3.44773 7 3.00002 6.55228 3.00002 6ZM3.00002 12C3.00002 11.4477 3.44773 11 4.00002 11H20C20.5523 11 21 11.4477 21 12C21 12.5523 20.5523 13 20 13H4.00002C3.44773 13 3.00002 12.5523 3.00002 12ZM4.00002 17C3.44773 17 3.00002 17.4477 3.00002 18C3.00002 18.5523 3.44773 19 4.00002 19H20C20.5523 19 21 18.5523 21 18C21 17.4477 20.5523 17 20 17H4.00002Z" fill="#F5F5F5"/>
</g>
</svg>
