<svg width="24" height="24" viewBox="0 0 24 24" fill="none" xmlns="http://www.w3.org/2000/svg">
<g id="icon/24pt/rank">
<path id="Union (Stroke)" fill-rule="evenodd" clip-rule="evenodd" d="M12 5C9.79086 5 8 6.79086 8 9C8 10.1842 8.51329 11.2471 9.33272 11.9809C9.58381 12.2058 9.70473 12.542 9.65437 12.8753C9.60402 13.2085 9.38917 13.494 9.08286 13.6347C6.67134 14.7419 5 17.1768 5 20C5 20.5523 4.55228 21 4 21C3.44772 21 3 20.5523 3 20C3 16.8382 4.63039 14.0588 7.09349 12.454C6.40513 11.4777 6 10.2858 6 9C6 5.68629 8.68629 3 12 3C15.3137 3 18 5.68629 18 9C18 10.2858 17.5949 11.4777 16.9065 12.454C19.3696 14.0588 21 16.8382 21 20C21 20.5523 20.5523 21 20 21C19.4477 21 19 20.5523 19 20C19 17.1768 17.3287 14.7419 14.9171 13.6347C14.6108 13.494 14.396 13.2085 14.3456 12.8753C14.2953 12.542 14.4162 12.2058 14.6673 11.9809C15.4867 11.2471 16 10.1842 16 9C16 6.79086 14.2091 5 12 5Z" fill="#FFB13E"/>
</g>
</svg>
