<svg width="24" height="24" viewBox="0 0 24 24" fill="none" xmlns="http://www.w3.org/2000/svg">
<g id="icon/24pt/&#230;&#143;&#144;&#229;&#143;&#150;">
<path id="Rectangle 345 (Stroke)" fill-rule="evenodd" clip-rule="evenodd" d="M4 11C4.55228 11 5 11.4477 5 12V19H19V12C19 11.4477 19.4477 11 20 11C20.5523 11 21 11.4477 21 12V20C21 20.5523 20.5523 21 20 21H4C3.44772 21 3 20.5523 3 20V12C3 11.4477 3.44772 11 4 11Z" fill="#FFB13E"/>
<path id="Vector 3 (Stroke)" fill-rule="evenodd" clip-rule="evenodd" d="M11.3018 3.284C11.6901 2.90533 12.3096 2.90533 12.698 3.284L15.982 6.4859C16.3774 6.87145 16.3854 7.50456 15.9999 7.9C15.6143 8.29544 14.9812 8.30345 14.5858 7.9179L12.9999 6.37165V15C12.9999 15.5523 12.5521 16 11.9999 16C11.4476 16 10.9999 15.5523 10.9999 15V6.37165L9.41396 7.9179C9.01852 8.30345 8.38541 8.29544 7.99986 7.9C7.61431 7.50456 7.62232 6.87145 8.01776 6.4859L11.3018 3.284Z" fill="#FFB13E"/>
</g>
</svg>
