<svg width="16" height="16" viewBox="0 0 16 16" fill="none" xmlns="http://www.w3.org/2000/svg">
<g id="icon/16pt/illustrate">
<path id="Union" fill-rule="evenodd" clip-rule="evenodd" d="M8 2.5C4.96243 2.5 2.5 4.96243 2.5 8C2.5 11.0376 4.96243 13.5 8 13.5C11.0376 13.5 13.5 11.0376 13.5 8C13.5 4.96243 11.0376 2.5 8 2.5ZM1.5 8C1.5 4.41015 4.41015 1.5 8 1.5C11.5899 1.5 14.5 4.41015 14.5 8C14.5 11.5899 11.5899 14.5 8 14.5C4.41015 14.5 1.5 11.5899 1.5 8ZM8 5C7.17157 5 6.5 5.67157 6.5 6.5C6.5 6.77614 6.27614 7 6 7C5.72386 7 5.5 6.77614 5.5 6.5C5.5 5.11929 6.61929 4 8 4C9.38071 4 10.5 5.11929 10.5 6.5C10.5 7.70948 9.64112 8.71836 8.5 8.94999V10C8.5 10.2761 8.27614 10.5 8 10.5C7.72386 10.5 7.5 10.2761 7.5 10V8.5C7.5 8.22386 7.72386 8 8 8C8.82843 8 9.5 7.32843 9.5 6.5C9.5 5.67157 8.82843 5 8 5ZM8 12.5C8.27614 12.5 8.5 12.2761 8.5 12C8.5 11.7239 8.27614 11.5 8 11.5C7.72386 11.5 7.5 11.7239 7.5 12C7.5 12.2761 7.72386 12.5 8 12.5Z" fill="#FFB13E" fill-opacity="0.6"/>
</g>
</svg>
